<svg xmlns="http://www.w3.org/2000/svg" xmlns:osb="http://www.openswatchbook.org/uri/2009/osb" xmlns:svg="http://www.w3.org/2000/svg" id="svg15" version="1.1" viewBox="0 0 48 48"><metadata id="metadata19"/><defs id="defs7"><linearGradient id="linearGradient828" osb:paint="solid"><stop style="stop-color:red;stop-opacity:1" id="stop826" offset="0"/></linearGradient><linearGradient id="0" x2="0" y1="47.37" y2="-1.429" gradientUnits="userSpaceOnUse"><stop id="stop2" stop-color="#c52828"/><stop id="stop4" offset="1" stop-color="#ff5454"/></linearGradient></defs><g id="g13" transform="matrix(.99999 0 0 .99999-58.37.882)" style="fill-opacity:1"><circle id="circle9" cx="82.37" cy="23.12" r="24" fill="url(#0)" style="fill-opacity:1;fill:#d33"/><path id="path11" fill="#fff" fill-opacity=".842" d="m87.77 23.725l5.939-5.939c.377-.372.566-.835.566-1.373 0-.54-.189-.997-.566-1.374l-2.747-2.747c-.377-.372-.835-.564-1.373-.564-.539 0-.997.186-1.374.564l-5.939 5.939-5.939-5.939c-.377-.372-.835-.564-1.374-.564-.539 0-.997.186-1.374.564l-2.748 2.747c-.377.378-.566.835-.566 1.374 0 .54.188.997.566 1.373l5.939 5.939-5.939 5.94c-.377.372-.566.835-.566 1.373 0 .54.188.997.566 1.373l2.748 2.747c.377.378.835.564 1.374.564.539 0 .997-.186 1.374-.564l5.939-5.939 5.94 5.939c.377.378.835.564 1.374.564.539 0 .997-.186 1.373-.564l2.747-2.747c.377-.372.566-.835.566-1.373 0-.54-.188-.997-.566-1.373l-5.939-5.94" style="fill-opacity:1;fill:#fff"/></g></svg>